{"glyphs":{":":{"x_min":0,"x_max":294,"ha":294,"o":"m 147 -14 q 123 -14 106 3 q 89 20 89 44 q 89 68 106 86 q 123 103 147 103 q 171 103 188 86 q 205 68 205 44 q 205 20 188 3 q 171 -14 147 -14 z m 147 245 q 123 245 106 262 q 89 279 89 303 q 89 327 106 344 q 123 361 147 361 q 171 361 188 344 q 205 327 205 303 q 205 279 188 262 q 171 245 147 245 z"},"$":{"x_min":0,"x_max":471,"ha":471,"o":"m 232 280 l 193 50 q 197 50 205 49 q 217 48 220 48 q 269 48 299 80 q 330 112 330 163 q 330 206 305 235 q 280 265 232 280 z m 226 397 l 265 612 q 260 612 253 613 q 247 614 246 614 q 193 614 164 585 q 134 556 134 506 q 134 467 157 439 q 181 411 226 397 z m 145 -69 l 158 7 q 121 19 92 42 q 63 64 34 106 l 72 137 q 94 103 118 83 q 141 63 167 57 l 208 289 q 111 321 70 364 q 28 408 28 475 q 28 555 83 606 q 139 658 225 658 q 237 658 259 655 q 268 653 272 653 l 282 712 l 310 712 l 299 647 q 331 639 358 617 q 385 596 411 559 l 374 524 q 354 559 334 578 q 314 597 291 604 l 253 388 q 350 358 396 311 q 442 263 442 192 q 442 109 379 55 q 317 0 223 0 l 208 0 q 200 0 195 0 q 190 0 185 1 l 172 -69 z"},"?":{"x_min":0,"x_max":447,"ha":447,"o":"m 200 -16 q 176 -16 159 1 q 142 18 142 42 q 142 66 159 83 q 175 100 200 100 q 224 100 241 83 q 259 66 259 42 q 259 18 241 1 q 224 -16 200 -16 z m 186 129 l 167 294 q 167 300 166 305 q 166 310 166 313 q 166 334 204 362 q 213 370 219 374 q 257 405 276 439 q 294 474 294 515 q 294 564 264 594 q 234 625 187 625 q 140 625 115 600 q 89 575 89 529 l 89 517 l 45 517 l 45 521 q 45 588 87 628 q 130 667 202 667 q 288 667 341 619 q 395 571 395 494 q 395 451 376 411 q 357 372 323 344 q 313 335 294 321 q 262 296 252 284 q 243 273 236 253 q 230 234 223 188 l 214 129 z"},"<":{"x_min":0,"x_max":833,"ha":833,"o":"m 704 497 l 216 298 l 704 100 l 704 37 l 129 273 l 129 323 l 704 559 z"},"'":{"x_min":0,"x_max":149,"ha":149,"o":"m 103 700 l 103 430 l 46 430 l 46 700 z"},"=":{"x_min":0,"x_max":833,"ha":833,"o":"m 709 233 l 709 176 l 124 176 l 124 233 z m 709 420 l 709 363 l 124 363 l 124 420 z"},"a":{"x_min":0,"x_max":410,"ha":410,"o":"m 99 132 l 61 0 l 19 0 l 124 375 q 133 407 152 424 q 172 441 200 441 q 230 441 252 422 q 274 403 284 369 l 394 0 l 297 0 l 258 132 z m 109 169 l 248 169 l 197 351 q 192 366 188 370 q 184 375 177 375 q 172 375 168 370 q 165 365 160 350 z"},"L":{"x_min":0,"x_max":475,"ha":475,"o":"m 488 49 l 488 0 l 84 0 l 84 653 l 205 653 l 205 49 z"},"3":{"x_min":0,"x_max":387,"ha":387,"o":"m 7 0 l 205 261 q 224 287 233 304 q 241 322 241 336 q 241 359 222 368 q 203 378 156 378 l 43 378 l 214 604 l 0 604 l 0 653 l 366 653 l 186 417 q 196 417 207 418 q 218 418 234 418 q 294 418 324 395 q 355 373 355 328 q 355 304 344 276 q 332 249 310 220 l 143 0 z"},";":{"x_min":0,"x_max":294,"ha":294,"o":"m 160 245 q 136 245 119 262 q 102 279 102 303 q 102 327 119 344 q 136 361 160 361 q 184 361 201 344 q 218 327 218 303 q 218 279 201 262 q 184 245 160 245 z m 37 -186 l 97 19 q 111 68 125 85 q 139 102 160 102 q 181 102 194 89 q 208 77 208 57 q 208 42 200 25 q 193 9 174 -15 z"},"J":{"x_min":0,"x_max":312,"ha":312,"o":"m -6 41 l 20 41 q 71 41 91 63 q 111 85 111 145 l 111 653 l 231 653 l 231 161 q 231 74 190 35 q 149 -4 57 -4 q 43 -4 27 -3 q 11 -2 -6 -1 z"},"V":{"x_min":0,"x_max":514,"ha":514,"o":"m 261 -16 l -10 653 l 118 653 l 292 208 l 457 653 l 520 653 z"},"\"":{"x_min":0,"x_max":288,"ha":288,"o":"m 242 700 l 242 430 l 184 430 l 184 700 z m 103 700 l 103 430 l 46 430 l 46 700 z"},"7":{"x_min":0,"x_max":396,"ha":396,"o":"m 27 0 l 285 604 l -16 604 l -16 653 l 416 653 l 141 0 z"},"S":{"x_min":0,"x_max":505,"ha":505,"o":"m 97 124 q 119 83 152 60 q 186 37 224 37 q 276 37 309 70 q 342 103 342 155 q 342 237 196 297 l 194 298 q 116 330 83 371 q 50 411 50 473 q 50 558 106 613 q 163 667 253 667 q 320 667 371 637 q 421 606 446 551 l 403 522 q 387 568 354 593 q 322 617 278 617 q 230 617 200 587 q 170 556 170 507 q 170 468 195 440 q 220 413 288 384 q 396 337 430 295 q 465 252 465 186 q 465 98 404 41 q 343 -16 250 -16 q 183 -16 134 10 q 85 36 49 90 z"},"}":{"x_min":0,"x_max":500,"ha":500,"o":"m 275 543 l 275 424 q 275 350 302 319 q 329 289 395 289 q 398 289 406 290 q 413 290 417 290 l 417 228 q 413 228 406 229 q 398 229 395 229 q 329 229 302 199 q 275 168 275 94 l 275 -24 q 275 -99 264 -130 q 253 -161 227 -178 q 208 -191 179 -197 q 151 -202 101 -202 l 81 -202 l 81 -141 q 85 -141 92 -142 q 100 -142 103 -142 q 162 -142 183 -119 q 204 -96 204 -22 l 204 95 q 204 176 225 210 q 247 244 301 259 q 247 274 225 308 q 204 342 204 423 l 204 541 q 204 614 183 637 q 161 660 100 660 l 81 660 l 81 721 l 98 721 q 147 721 177 715 q 207 709 227 696 q 253 679 264 648 q 275 617 275 543 z"},"Z":{"x_min":0,"x_max":565,"ha":565,"o":"m 15 0 l 384 604 l 52 604 l 52 653 l 548 653 l 180 49 l 541 49 l 541 0 z"},"x":{"x_min":0,"x_max":405,"ha":405,"o":"m 59 0 l 8 0 l 160 200 l 4 428 l 115 428 l 218 276 l 334 428 l 382 428 l 242 242 l 407 0 l 296 0 l 183 165 z"},")":{"x_min":0,"x_max":382,"ha":382,"o":"m 63 642 l 120 668 q 179 579 213 458 q 246 338 246 215 q 246 93 212 -27 q 179 -147 120 -237 l 63 -212 q 106 -124 128 -16 q 150 93 150 215 q 150 337 128 446 q 105 554 63 642 z"},"&":{"x_min":0,"x_max":579,"ha":579,"o":"m 248 496 q 276 516 289 534 q 302 552 302 573 q 302 599 286 613 q 271 628 243 628 q 222 628 208 617 q 193 605 193 590 q 193 584 195 578 q 196 572 200 565 z m 415 94 l 225 375 q 176 340 155 304 q 134 268 134 219 q 134 143 180 93 q 226 44 296 44 q 330 44 360 56 q 389 69 415 94 z m 476 0 l 443 50 q 408 19 366 3 q 324 -12 273 -12 q 174 -12 107 55 q 40 122 40 220 q 40 286 73 339 q 105 392 180 444 l 144 497 q 133 513 128 527 q 123 541 123 556 q 123 602 165 635 q 206 669 265 669 q 316 669 350 636 q 384 604 384 555 q 384 516 364 485 q 344 454 300 423 l 461 179 q 465 202 466 213 q 467 224 467 234 q 467 255 462 282 q 458 308 449 340 l 499 340 q 507 314 512 289 q 516 263 516 239 q 516 207 512 179 q 507 150 498 123 l 584 0 z"},"_":{"x_min":0,"x_max":500,"ha":500,"o":"m 500 -178 l 500 -236 l 0 -236 l 0 -178 z"},"v":{"x_min":0,"x_max":417,"ha":417,"o":"m 362 428 l 402 428 l 300 83 q 284 28 265 7 q 246 -14 214 -14 q 182 -14 163 7 q 143 28 128 81 l 26 428 l 123 428 l 232 55 q 233 51 237 48 q 240 45 243 45 q 247 45 250 48 q 252 50 254 55 z"},"O":{"x_min":0,"x_max":741,"ha":741,"o":"m 574 325 q 574 459 517 542 q 460 625 370 625 q 281 625 223 542 q 166 459 166 325 q 166 192 223 109 q 281 26 370 26 q 459 26 517 109 q 574 191 574 325 z m 370 -16 q 302 -16 242 9 q 182 33 134 81 q 86 128 62 191 q 37 253 37 325 q 37 398 62 460 q 87 523 135 570 q 183 617 243 642 q 304 667 370 667 q 423 667 474 650 q 524 634 568 602 q 634 554 669 483 q 704 411 704 325 q 704 253 679 191 q 654 128 606 81 q 558 33 498 9 q 438 -16 370 -16 z"},"(":{"x_min":0,"x_max":382,"ha":382,"o":"m 319 642 q 276 554 254 446 q 232 337 232 215 q 232 93 254 -16 q 276 -124 319 -212 l 262 -237 q 203 -147 170 -27 q 136 93 136 215 q 136 338 170 458 q 203 579 262 668 z"},"C":{"x_min":0,"x_max":630,"ha":630,"o":"m 614 155 q 576 72 508 28 q 439 -16 349 -16 q 215 -16 126 80 q 37 176 37 326 q 37 472 128 570 q 219 667 354 667 q 436 667 496 633 q 557 600 596 532 l 557 505 q 527 564 482 594 q 438 624 379 624 q 281 624 223 543 q 166 462 166 322 q 166 187 221 112 q 275 37 374 37 q 440 37 491 73 q 542 110 574 180 z"},"W":{"x_min":0,"x_max":785,"ha":785,"o":"m 532 -16 l 394 333 l 261 -16 l -10 653 l 118 653 l 295 200 l 368 392 l 261 653 l 388 653 l 563 208 l 728 653 l 791 653 z"},"A":{"x_min":0,"x_max":537,"ha":537,"o":"m 136 215 l 326 215 l 231 453 z m -6 0 l 262 666 l 541 0 l 412 0 l 344 174 l 119 174 l 52 0 z"},"f":{"x_min":0,"x_max":264,"ha":264,"o":"m 67 0 l 67 555 q 67 639 95 669 q 124 699 197 699 l 209 699 l 257 698 l 257 659 l 231 659 q 188 658 175 646 q 162 633 162 592 l 162 428 l 261 428 l 261 386 l 162 386 l 162 0 z"},"Q":{"x_min":0,"x_max":741,"ha":741,"o":"m 315 -88 l 315 -11 q 190 9 114 102 q 37 194 37 325 q 37 397 62 460 q 87 522 135 570 q 182 617 243 642 q 303 667 370 667 q 437 667 498 642 q 558 617 605 570 q 654 521 679 459 q 704 397 704 325 q 704 195 627 102 q 551 10 426 -11 l 426 -88 z m 315 110 l 425 110 l 425 36 q 494 60 534 137 q 574 214 574 325 q 574 459 517 542 q 459 625 370 625 q 281 625 223 542 q 166 459 166 325 q 166 214 206 137 q 247 60 315 36 z"},"w":{"x_min":0,"x_max":622,"ha":622,"o":"m 297 83 q 280 23 263 5 q 245 -14 214 -14 q 183 -14 163 7 q 143 28 128 82 l 26 428 l 123 428 l 231 55 q 232 51 236 48 q 239 45 243 45 q 247 45 250 48 q 252 50 254 55 l 296 206 l 231 428 l 328 428 l 436 55 q 438 50 441 48 q 444 45 447 45 q 451 45 454 48 q 458 51 459 55 l 567 428 l 606 428 l 505 83 q 489 28 470 7 q 451 -14 419 -14 q 388 -14 368 7 q 349 27 332 82 l 314 142 z"},"-":{"x_min":0,"x_max":329,"ha":329,"o":"m 42 117 l 42 197 l 286 326 l 286 247 z"},"E":{"x_min":0,"x_max":543,"ha":543,"o":"m 84 0 l 84 653 l 488 653 l 488 604 l 205 604 l 205 365 l 468 365 l 468 316 l 205 316 l 205 49 l 488 49 l 488 0 z"},"s":{"x_min":0,"x_max":373,"ha":373,"o":"m 57 8 l 57 43 q 80 37 102 34 q 124 31 146 31 q 195 31 219 47 q 243 63 243 96 q 243 139 175 176 l 169 179 l 142 194 q 89 223 68 249 q 47 275 47 310 q 47 371 90 404 q 134 438 213 438 q 230 438 251 436 q 271 434 299 430 l 299 394 q 257 399 241 400 q 226 402 219 402 q 177 402 155 387 q 133 373 133 345 q 133 311 193 276 l 199 273 l 242 247 q 300 213 318 188 q 336 163 336 126 q 336 64 291 30 q 245 -4 162 -4 q 139 -4 113 -1 q 87 2 57 8 z"},">":{"x_min":0,"x_max":833,"ha":833,"o":"m 704 323 l 704 273 l 129 37 l 129 100 l 617 298 l 129 497 l 129 559 z"},"l":{"x_min":0,"x_max":241,"ha":241,"o":"m 67 699 l 162 699 l 162 71 q 162 51 171 44 q 180 37 212 37 l 236 37 l 236 0 l 132 0 q 96 0 81 15 q 67 30 67 77 z"},"8":{"x_min":0,"x_max":463,"ha":463,"o":"m 308 521 q 308 571 290 599 q 272 627 242 627 q 209 627 188 594 q 168 561 168 506 q 168 457 186 429 q 204 401 236 401 q 268 401 288 434 q 308 467 308 521 z m 327 198 q 327 270 302 311 q 276 352 232 352 q 185 352 155 304 q 126 256 126 178 q 126 107 152 66 q 178 26 223 26 q 269 26 298 73 q 327 121 327 198 z m 164 380 q 120 394 95 426 q 71 458 71 503 q 71 575 122 621 q 172 667 251 667 q 322 667 365 628 q 407 589 407 525 q 407 481 385 448 q 363 415 317 389 q 380 373 413 327 q 446 281 446 211 q 446 112 379 48 q 313 -16 211 -16 q 120 -16 64 39 q 9 93 9 182 q 9 254 49 306 q 90 357 164 380 z"},"\\":{"x_min":0,"x_max":266,"ha":266,"o":"m 267 -93 l 216 -93 l -1 667 l 49 667 z"},"e":{"x_min":0,"x_max":390,"ha":390,"o":"m 67 351 q 67 399 82 414 q 98 428 147 428 l 351 428 l 351 391 l 205 391 q 179 391 171 384 q 162 376 162 357 l 162 249 l 317 249 l 317 207 l 162 207 l 162 71 q 162 51 171 44 q 180 37 212 37 l 356 37 l 356 0 l 132 0 q 96 0 81 15 q 67 30 67 77 z"},"b":{"x_min":0,"x_max":485,"ha":485,"o":"m 162 37 q 172 35 184 34 q 195 33 209 33 q 288 33 322 70 q 357 107 357 191 q 357 292 318 343 q 279 393 200 393 q 193 393 171 392 q 165 391 162 391 z m 67 0 l 67 699 l 162 699 l 162 428 q 182 430 195 430 q 209 431 216 431 q 327 431 391 371 q 454 312 454 209 q 454 116 393 58 q 332 0 234 0 z"},"%":{"x_min":0,"x_max":877,"ha":877,"o":"m 741 174 q 741 250 720 285 q 700 321 656 321 q 614 321 592 286 q 571 250 571 181 q 571 106 592 70 q 613 34 656 34 q 698 34 719 70 q 741 105 741 174 z m 477 178 q 477 252 529 304 q 581 356 656 356 q 731 356 783 304 q 836 252 836 178 q 836 104 783 52 q 730 0 656 0 q 582 0 529 52 q 477 104 477 178 z m 253 -16 l 194 -16 l 623 667 l 683 667 z m 306 471 q 306 547 285 583 q 265 618 221 618 q 179 618 157 583 q 136 547 136 478 q 136 403 157 367 q 178 331 221 331 q 263 331 284 367 q 306 402 306 471 z m 41 475 q 41 549 94 601 q 146 653 221 653 q 296 653 348 601 q 400 550 400 475 q 400 401 348 349 q 295 297 221 297 q 146 297 94 349 q 41 401 41 475 z"},"m":{"x_min":0,"x_max":574,"ha":574,"o":"m 71 0 l 71 367 q 71 403 89 422 q 107 441 142 441 q 173 441 192 425 q 210 409 222 371 l 290 150 l 353 382 q 361 412 380 427 q 399 441 430 441 q 465 441 484 421 q 503 400 503 362 l 503 0 l 411 0 l 411 358 q 411 366 409 370 q 406 374 402 374 q 397 374 394 371 q 392 368 389 360 l 295 24 q 290 4 282 -5 q 274 -14 263 -14 q 252 -14 244 -6 q 236 1 231 16 l 130 355 q 129 357 128 361 q 125 374 120 374 q 117 374 115 369 q 112 365 112 357 l 112 0 z"},"#":{"x_min":0,"x_max":769,"ha":769,"o":"m 475 421 l 346 421 l 300 288 l 428 288 z m 450 711 l 369 481 l 496 481 l 578 711 l 648 711 l 568 481 l 718 481 l 697 421 l 545 421 l 499 288 l 660 288 l 639 228 l 477 228 l 396 -1 l 325 -1 l 407 228 l 278 228 l 196 -1 l 126 -1 l 207 228 l 51 228 l 72 288 l 228 288 l 275 421 l 108 421 l 129 481 l 297 481 l 379 711 z"},",":{"x_min":0,"x_max":294,"ha":294,"o":"m 37 -186 l 97 19 q 111 68 125 85 q 139 102 160 102 q 181 102 194 89 q 208 77 208 57 q 208 42 200 25 q 193 9 174 -15 z"},"n":{"x_min":0,"x_max":455,"ha":455,"o":"m 108 0 l 67 0 l 67 355 q 67 400 82 421 q 97 441 129 441 q 155 441 178 423 q 201 405 221 369 l 333 170 q 333 169 335 168 q 337 167 339 167 q 343 167 344 169 q 346 172 346 179 l 346 428 l 387 428 l 387 36 q 387 6 380 -4 q 373 -14 356 -14 q 344 -14 335 -8 q 327 -2 319 12 l 122 350 q 120 354 119 355 q 117 356 115 356 q 111 356 109 354 q 108 352 108 344 z"},"h":{"x_min":0,"x_max":486,"ha":486,"o":"m 162 0 l 67 0 l 67 699 l 162 699 l 162 253 l 324 253 l 324 428 l 419 428 l 419 0 l 324 0 l 324 216 l 162 216 z"},"z":{"x_min":0,"x_max":359,"ha":359,"o":"m 142 37 l 340 37 l 340 0 l 23 0 l 198 391 l 50 391 l 50 428 l 232 428 q 270 428 282 421 q 295 413 295 394 q 295 387 293 381 q 292 375 289 369 z"},"B":{"x_min":0,"x_max":602,"ha":602,"o":"m 205 322 l 205 42 l 282 42 q 360 42 396 72 q 431 102 431 167 q 431 246 390 284 q 348 322 263 322 z m 205 611 l 205 363 l 265 363 q 342 363 376 393 q 411 422 411 488 q 411 551 373 581 q 334 611 255 611 z m 315 0 l 84 0 l 84 653 l 277 653 q 338 653 379 647 q 419 641 441 629 q 480 608 503 570 q 526 532 526 487 q 526 432 497 396 q 468 360 413 346 q 479 329 514 285 q 549 241 549 175 q 549 86 491 43 q 434 0 315 0 z"},"K":{"x_min":0,"x_max":542,"ha":542,"o":"m 212 327 l 453 653 l 528 653 l 324 373 l 548 0 l 405 0 z m 84 0 l 84 653 l 205 653 l 205 0 z"},"R":{"x_min":0,"x_max":583,"ha":583,"o":"m 84 0 l 84 653 l 298 653 q 419 653 482 604 q 544 556 544 462 q 544 392 500 351 q 456 311 374 306 l 547 0 l 411 0 l 236 331 q 339 338 381 369 q 424 401 424 467 q 424 540 382 575 q 340 611 255 611 l 205 611 l 205 0 z"},"T":{"x_min":0,"x_max":472,"ha":472,"o":"m 176 0 l 176 604 l 5 604 l 5 653 l 467 653 l 467 604 l 296 604 l 296 0 z"},"P":{"x_min":0,"x_max":569,"ha":569,"o":"m 205 311 l 259 311 q 340 311 381 346 q 421 381 421 451 q 421 532 381 571 q 341 611 259 611 l 205 611 z m 84 0 l 84 653 l 318 653 q 422 653 482 601 q 542 549 542 459 q 542 371 487 321 q 432 271 335 271 l 205 271 l 205 0 z"},"|":{"x_min":0,"x_max":500,"ha":500,"o":"m 281 764 l 281 -236 l 219 -236 l 219 764 z"},"t":{"x_min":0,"x_max":336,"ha":336,"o":"m 120 0 l 120 391 l 29 391 l 29 428 l 306 428 l 306 391 l 215 391 l 215 0 z"},"M":{"x_min":0,"x_max":792,"ha":792,"o":"m 82 0 l 82 653 l 219 653 l 403 206 l 580 653 l 708 653 l 708 0 l 590 0 l 590 525 l 369 -24 l 138 525 l 138 0 z"},"g":{"x_min":0,"x_max":461,"ha":461,"o":"m 415 215 l 415 -174 l 332 -174 l 332 24 q 308 4 284 -6 q 260 -15 234 -15 q 150 -15 91 51 q 31 118 31 216 q 31 311 91 376 q 151 441 240 441 q 297 441 339 416 q 380 392 402 345 l 366 326 q 347 366 320 386 q 293 406 256 406 q 195 406 163 357 q 131 308 131 215 q 131 130 165 78 q 199 25 252 25 q 293 25 312 53 q 332 81 332 139 l 332 215 z"},"j":{"x_min":0,"x_max":236,"ha":236,"o":"m 70 551 q 70 574 86 590 q 103 606 126 606 q 149 606 165 590 q 181 574 181 551 q 181 528 165 512 q 149 496 126 496 q 103 496 86 512 q 70 528 70 551 z m 173 428 l 173 -29 q 173 -113 144 -143 q 116 -174 42 -174 l 31 -174 l -17 -172 l -17 -134 l 9 -133 q 52 -132 65 -120 q 78 -107 78 -67 l 78 428 z"},"i":{"x_min":0,"x_max":229,"ha":229,"o":"m 59 551 q 59 574 75 590 q 92 606 115 606 q 138 606 154 590 q 170 574 170 551 q 170 528 154 512 q 138 496 115 496 q 92 496 75 512 q 59 528 59 551 z m 67 428 l 162 428 l 162 0 l 67 0 z"},"y":{"x_min":0,"x_max":385,"ha":385,"o":"m 175 2 l 6 428 l 106 428 l 225 128 l 350 428 l 394 428 l 147 -174 l 100 -174 z"},"@":{"x_min":0,"x_max":1000,"ha":1000,"o":"m 631 412 l 659 471 l 713 471 l 644 194 q 641 182 640 172 q 638 163 638 155 q 638 133 652 122 q 665 111 692 111 q 714 111 741 123 q 768 134 791 154 q 834 191 859 250 q 884 309 884 374 q 884 504 788 583 q 693 662 535 662 q 453 662 383 637 q 312 611 256 562 q 188 502 153 424 q 118 346 118 251 q 118 167 148 103 q 177 39 239 -10 q 288 -49 356 -71 q 424 -92 500 -92 q 584 -92 663 -68 q 743 -44 808 0 l 830 -32 q 758 -85 677 -113 q 596 -140 508 -140 q 415 -140 338 -117 q 261 -95 203 -50 q 128 7 92 83 q 55 159 55 255 q 55 334 80 406 q 104 477 153 537 q 224 623 323 667 q 423 712 545 712 q 625 712 697 691 q 768 669 818 630 q 881 582 913 518 q 946 454 946 380 q 946 297 915 229 q 885 161 826 114 q 792 87 754 73 q 715 59 674 59 q 625 59 601 78 q 577 97 577 135 q 577 136 578 140 q 578 144 578 146 q 553 104 516 81 q 479 59 433 59 q 358 59 319 101 q 280 142 280 221 q 280 333 347 411 q 414 489 509 489 q 553 489 584 469 q 614 450 631 412 z m 587 231 l 616 349 q 608 393 581 417 q 554 442 515 442 q 444 442 396 378 q 348 313 348 218 q 348 164 373 135 q 398 106 444 106 q 494 106 533 140 q 573 175 587 231 z"},".":{"x_min":0,"x_max":294,"ha":294,"o":"m 147 -14 q 123 -14 106 3 q 89 20 89 44 q 89 68 106 86 q 123 103 147 103 q 171 103 188 86 q 205 68 205 44 q 205 20 188 3 q 171 -14 147 -14 z"},"p":{"x_min":0,"x_max":485,"ha":485,"o":"m 162 37 q 186 34 199 33 q 212 32 221 32 q 290 32 323 71 q 357 110 357 190 q 357 293 320 342 q 284 391 205 391 l 162 391 z m 162 0 l 162 -174 l 67 -174 l 67 428 l 216 428 q 324 428 389 368 q 454 307 454 209 q 454 113 391 54 q 329 -5 226 -5 q 210 -5 180 -2 q 167 0 162 0 z"},"X":{"x_min":0,"x_max":556,"ha":556,"o":"m 3 0 l 221 309 l 4 653 l 141 653 l 297 407 l 469 653 l 538 653 l 329 360 l 562 0 l 424 0 l 256 263 l 72 0 z"},"*":{"x_min":0,"x_max":486,"ha":486,"o":"m 257 513 l 380 584 l 407 502 l 266 487 l 370 390 l 301 340 l 243 470 l 184 341 l 115 391 l 220 487 l 79 502 l 105 584 l 228 513 l 200 653 l 285 653 z"},"Y":{"x_min":0,"x_max":509,"ha":509,"o":"m 194 0 l 194 316 l -25 653 l 118 653 l 283 385 l 460 653 l 533 653 l 315 333 l 315 0 z"},"c":{"x_min":0,"x_max":424,"ha":424,"o":"m 408 94 q 381 42 336 14 q 292 -14 238 -14 q 150 -14 90 51 q 31 116 31 216 q 31 311 91 376 q 151 441 240 441 q 297 441 339 416 q 380 392 402 345 l 366 326 q 347 366 320 386 q 293 406 256 406 q 195 406 163 357 q 131 308 131 215 q 131 130 165 77 q 199 25 252 25 q 290 25 321 48 q 352 71 374 116 z"},"!":{"x_min":0,"x_max":317,"ha":317,"o":"m 158 -16 q 134 -16 117 1 q 100 18 100 42 q 100 66 117 83 q 133 100 158 100 q 182 100 199 83 q 217 66 217 42 q 217 18 199 1 q 182 -16 158 -16 z m 147 130 l 108 543 q 106 561 105 575 q 104 590 104 600 q 104 633 118 650 q 132 668 159 668 q 185 668 199 650 q 214 632 214 600 q 214 593 212 573 q 210 554 209 543 l 170 130 z"},"/":{"x_min":0,"x_max":266,"ha":266,"o":"m -1 -93 l 216 667 l 267 667 l 50 -93 z"},"[":{"x_min":0,"x_max":382,"ha":382,"o":"m 137 653 l 309 653 l 309 616 l 232 616 l 232 -175 l 309 -175 l 309 -212 l 137 -212 z"},"6":{"x_min":0,"x_max":465,"ha":465,"o":"m 326 199 q 326 265 302 302 q 278 339 235 339 q 189 339 160 290 q 131 242 131 163 q 131 99 155 62 q 179 25 219 25 q 267 25 297 73 q 326 120 326 199 z m 166 347 q 188 367 217 378 q 246 388 278 388 q 350 388 394 342 q 437 295 437 218 q 437 118 375 51 q 312 -16 218 -16 q 128 -16 73 40 q 17 96 17 186 q 17 224 28 267 q 39 311 58 353 l 197 653 l 307 653 z"},"r":{"x_min":0,"x_max":447,"ha":447,"o":"m 162 0 l 67 0 l 67 428 l 239 428 q 319 428 360 398 q 402 368 402 310 q 402 268 377 241 q 352 214 308 209 l 419 0 l 305 0 l 203 214 q 255 215 279 235 q 303 256 303 300 q 303 348 280 370 q 256 393 206 393 l 162 393 z"},"2":{"x_min":0,"x_max":486,"ha":486,"o":"m 17 0 l 230 291 q 293 376 312 418 q 331 459 331 498 q 331 554 297 586 q 263 619 205 619 q 146 619 112 579 q 77 540 77 470 q 77 467 78 460 q 78 454 78 451 l 29 451 l 29 481 q 29 570 80 619 q 131 667 224 667 q 320 667 381 614 q 442 560 442 477 q 442 434 425 392 q 409 350 370 297 l 188 49 l 447 49 l 447 0 z"},"{":{"x_min":0,"x_max":500,"ha":500,"o":"m 419 659 q 415 659 408 660 q 400 660 397 660 q 338 660 317 637 q 296 614 296 541 l 296 423 q 296 342 275 308 q 253 274 199 259 q 253 244 275 210 q 296 176 296 95 l 296 -23 q 296 -96 317 -118 q 338 -141 400 -141 l 419 -141 l 419 -202 l 402 -202 q 354 -202 324 -196 q 294 -190 274 -177 q 247 -159 236 -128 q 225 -97 225 -24 l 225 95 q 225 169 198 199 q 171 229 106 229 q 103 229 95 229 q 88 228 84 228 l 84 290 q 88 290 95 290 q 103 289 106 289 q 171 289 198 319 q 225 349 225 424 l 225 543 q 225 618 236 648 q 247 679 274 696 q 294 709 324 715 q 353 721 402 721 l 419 721 z"},"9":{"x_min":0,"x_max":463,"ha":463,"o":"m 139 454 q 139 390 164 354 q 189 317 232 317 q 279 317 308 365 q 338 413 338 490 q 338 554 313 590 q 289 627 248 627 q 199 627 169 580 q 139 532 139 454 z m 270 291 q 245 279 225 273 q 205 268 187 268 q 115 268 68 316 q 21 363 21 435 q 21 528 89 598 q 157 667 249 667 q 332 667 386 612 q 441 557 441 474 q 441 440 430 403 q 420 366 391 304 l 248 0 l 134 0 z"}," ":{"x_min":0,"x_max":294,"ha":294,"o":""},"I":{"x_min":0,"x_max":294,"ha":294,"o":"m 207 0 l 87 0 l 87 653 l 207 653 z"},"H":{"x_min":0,"x_max":683,"ha":683,"o":"m 205 308 l 205 0 l 84 0 l 84 653 l 205 653 l 205 356 l 478 356 l 478 653 l 598 653 l 598 0 l 478 0 l 478 308 z"},"4":{"x_min":0,"x_max":551,"ha":551,"o":"m 319 268 l 319 575 l 99 268 z m 319 0 l 319 219 l 13 219 l 13 234 l 309 653 l 423 653 l 423 268 l 533 268 l 533 219 l 423 219 l 423 0 z"},"~":{"x_min":0,"x_max":833,"ha":833,"o":"m 747 306 q 698 271 651 253 q 604 236 558 236 q 537 236 514 240 q 491 245 465 253 q 450 258 422 268 q 324 303 275 303 q 234 303 190 285 q 146 267 87 225 l 87 290 q 138 326 186 343 q 233 361 276 361 q 303 361 333 355 q 362 349 418 329 q 425 327 439 321 q 517 293 559 293 q 600 293 644 311 q 688 329 747 370 z"},"D":{"x_min":0,"x_max":686,"ha":686,"o":"m 204 604 l 204 49 l 276 49 q 335 49 373 59 q 412 70 437 92 q 477 127 499 188 q 520 249 520 328 q 520 461 450 533 q 381 604 250 604 z m 84 0 l 84 653 l 244 653 q 435 653 542 562 q 650 472 650 312 q 650 171 562 86 q 475 0 331 0 z"},"^":{"x_min":0,"x_max":1000,"ha":1000,"o":"m 539 712 l 793 440 l 716 440 l 500 654 l 284 440 l 206 440 l 460 712 z"},"0":{"x_min":0,"x_max":588,"ha":588,"o":"m 289 26 q 354 26 392 109 q 431 193 431 336 q 431 470 395 547 q 358 625 298 625 q 234 625 195 543 q 156 461 156 323 q 156 184 191 105 q 227 26 289 26 z m 272 -16 q 168 -16 102 69 q 36 154 36 291 q 36 458 115 562 q 193 667 316 667 q 419 667 486 582 q 552 497 552 360 q 552 193 473 89 q 395 -16 272 -16 z"},"F":{"x_min":0,"x_max":520,"ha":520,"o":"m 84 0 l 84 653 l 498 653 l 498 604 l 205 604 l 205 365 l 480 365 l 480 319 l 205 319 l 205 0 z"},"`":{"x_min":0,"x_max":500,"ha":500,"o":"m 266 495 l 135 666 l 209 666 l 311 495 z"},"k":{"x_min":0,"x_max":436,"ha":436,"o":"m 162 0 l 67 0 l 67 699 l 162 699 l 162 211 l 338 428 l 391 428 l 244 247 l 437 0 l 318 0 l 162 200 z"},"u":{"x_min":0,"x_max":442,"ha":442,"o":"m 160 428 l 160 151 q 160 99 184 71 q 208 43 254 43 q 301 43 322 72 q 342 102 342 170 l 342 428 l 384 428 l 384 140 q 384 68 344 27 q 304 -14 234 -14 q 151 -14 108 28 q 65 70 65 152 l 65 428 z"},"]":{"x_min":0,"x_max":382,"ha":382,"o":"m 244 653 l 244 -212 l 72 -212 l 72 -175 l 150 -175 l 150 616 l 72 616 l 72 653 z"},"U":{"x_min":0,"x_max":620,"ha":620,"o":"m 82 653 l 203 653 l 203 259 q 203 144 235 98 q 268 53 344 53 q 421 53 453 98 q 485 144 485 259 l 485 653 l 543 653 l 543 237 q 543 110 486 47 q 428 -16 313 -16 q 262 -16 215 2 q 167 21 137 53 q 107 84 95 125 q 82 165 82 237 z"},"o":{"x_min":0,"x_max":491,"ha":491,"o":"m 245 18 q 296 18 328 72 q 360 125 360 213 q 360 301 328 355 q 296 409 245 409 q 194 409 162 355 q 130 301 130 213 q 130 125 162 72 q 194 18 245 18 z m 258 -14 q 161 -14 96 52 q 31 119 31 219 q 31 317 86 379 q 142 441 232 441 q 330 441 395 375 q 460 308 460 208 q 460 109 404 48 q 348 -14 258 -14 z"},"N":{"x_min":0,"x_max":671,"ha":671,"o":"m 82 0 l 82 653 l 193 653 l 531 202 l 531 653 l 589 653 l 589 0 l 531 0 l 140 520 l 140 0 z"},"+":{"x_min":0,"x_max":833,"ha":833,"o":"m 446 596 l 446 327 l 709 327 l 709 270 l 446 270 l 446 0 l 388 0 l 388 270 l 124 270 l 124 327 l 388 327 l 388 596 z"},"G":{"x_min":0,"x_max":662,"ha":662,"o":"m 612 305 l 612 85 q 554 35 492 9 q 430 -16 364 -16 q 218 -16 127 78 q 37 173 37 326 q 37 472 128 570 q 219 667 354 667 q 436 667 496 633 q 557 600 596 532 l 557 505 q 527 564 482 594 q 438 624 379 624 q 281 624 223 543 q 166 462 166 322 q 166 187 221 112 q 276 37 374 37 q 412 37 445 49 q 478 61 502 83 l 502 305 z"},"q":{"x_min":0,"x_max":491,"ha":491,"o":"m 285 28 q 320 46 340 95 q 360 145 360 213 q 360 301 328 355 q 296 409 245 409 q 194 409 162 355 q 130 301 130 213 q 130 144 152 92 q 174 40 206 29 l 206 130 l 285 130 z m 285 -12 l 285 -118 l 206 -118 l 206 -8 q 125 11 78 72 q 31 133 31 219 q 31 317 87 379 q 143 441 232 441 q 330 441 395 375 q 460 308 460 207 q 460 117 411 56 q 361 -6 285 -12 z"},"d":{"x_min":0,"x_max":485,"ha":485,"o":"m 323 391 q 305 394 292 395 q 278 396 268 396 q 198 396 163 349 q 128 301 128 206 q 128 121 166 79 q 204 37 281 37 l 323 37 z m 323 428 l 323 699 l 418 699 l 418 0 l 269 0 q 161 0 96 60 q 31 121 31 219 q 31 318 91 376 q 151 433 256 433 q 267 433 283 432 q 299 431 323 428 z"},"1":{"x_min":0,"x_max":282,"ha":282,"o":"m 99 0 l 99 614 q 82 612 48 610 q 31 609 22 608 l 22 651 q 52 653 91 656 q 130 660 203 667 l 203 0 z"},"5":{"x_min":0,"x_max":428,"ha":428,"o":"m 43 0 l 240 280 l 240 281 q 264 313 264 336 q 264 359 246 369 q 228 378 175 378 l 46 378 l 46 653 l 378 653 l 378 604 l 153 604 l 153 426 l 246 426 q 326 426 357 406 q 388 387 388 341 q 388 321 376 294 q 364 267 340 233 l 176 0 z"}}}
